<mxfile host="embed.diagrams.net" modified="2020-08-31T02:23:39.651Z" agent="5.0 (Windows NT 10.0; Win64; x64) AppleWebKit/537.36 (KHTML, like Gecko) Code/1.48.2 Chrome/78.0.3904.130 Electron/7.3.2 Safari/537.36" etag="YkF8XAbPBsXZkp59tw4N" version="13.6.5">
    <diagram id="6hGFLwfOUW9BJ-s0fimq" name="Page-1">
        <mxGraphModel dx="729" dy="661" grid="1" gridSize="10" guides="1" tooltips="1" connect="1" arrows="1" fold="1" page="1" pageScale="1" pageWidth="827" pageHeight="1169" math="0" shadow="0">
            <root>
                <mxCell id="0"/>
                <mxCell id="1" parent="0"/>
                <mxCell id="6" style="edgeStyle=orthogonalEdgeStyle;rounded=0;orthogonalLoop=1;jettySize=auto;html=1;endArrow=none;endFill=0;" parent="1" source="2" edge="1">
                    <mxGeometry relative="1" as="geometry">
                        <mxPoint x="100" y="600" as="targetPoint"/>
                    </mxGeometry>
                </mxCell>
                <mxCell id="2" value="User" style="rounded=0;whiteSpace=wrap;html=1;" parent="1" vertex="1">
                    <mxGeometry x="40" y="40" width="120" height="40" as="geometry"/>
                </mxCell>
                <mxCell id="8" style="edgeStyle=orthogonalEdgeStyle;rounded=0;orthogonalLoop=1;jettySize=auto;html=1;endArrow=none;endFill=0;fontSize=18;" parent="1" source="3" edge="1">
                    <mxGeometry relative="1" as="geometry">
                        <mxPoint x="340" y="600" as="targetPoint"/>
                    </mxGeometry>
                </mxCell>
                <mxCell id="3" value="ORCA" style="rounded=0;whiteSpace=wrap;html=1;" parent="1" vertex="1">
                    <mxGeometry x="280" y="40" width="120" height="40" as="geometry"/>
                </mxCell>
                <mxCell id="9" style="edgeStyle=orthogonalEdgeStyle;rounded=0;orthogonalLoop=1;jettySize=auto;html=1;endArrow=none;endFill=0;fontSize=18;" parent="1" source="5" edge="1">
                    <mxGeometry relative="1" as="geometry">
                        <mxPoint x="580" y="600" as="targetPoint"/>
                    </mxGeometry>
                </mxCell>
                <mxCell id="5" value="CLINICS" style="rounded=0;whiteSpace=wrap;html=1;" parent="1" vertex="1">
                    <mxGeometry x="520" y="40" width="120" height="40" as="geometry"/>
                </mxCell>
                <mxCell id="11" value="" style="endArrow=classic;html=1;fontSize=18;" parent="1" edge="1">
                    <mxGeometry width="50" height="50" relative="1" as="geometry">
                        <mxPoint x="100" y="100" as="sourcePoint"/>
                        <mxPoint x="580" y="100" as="targetPoint"/>
                    </mxGeometry>
                </mxCell>
                <mxCell id="12" value="新規患者登録" style="edgeLabel;html=1;align=center;verticalAlign=middle;resizable=0;points=[];fontSize=14;" parent="11" vertex="1" connectable="0">
                    <mxGeometry x="-0.06" y="1" relative="1" as="geometry">
                        <mxPoint y="-9" as="offset"/>
                    </mxGeometry>
                </mxCell>
                <mxCell id="22" value="" style="endArrow=classic;html=1;fontSize=18;" parent="1" edge="1">
                    <mxGeometry width="50" height="50" relative="1" as="geometry">
                        <mxPoint x="100" y="160" as="sourcePoint"/>
                        <mxPoint x="580" y="160" as="targetPoint"/>
                    </mxGeometry>
                </mxCell>
                <mxCell id="23" value="受付登録・修正・削除" style="edgeLabel;html=1;align=center;verticalAlign=middle;resizable=0;points=[];fontSize=14;" parent="22" vertex="1" connectable="0">
                    <mxGeometry x="-0.06" y="1" relative="1" as="geometry">
                        <mxPoint x="40" y="-9" as="offset"/>
                    </mxGeometry>
                </mxCell>
                <mxCell id="24" value="" style="endArrow=classic;html=1;fontSize=18;" parent="1" edge="1">
                    <mxGeometry width="50" height="50" relative="1" as="geometry">
                        <mxPoint x="100" y="280" as="sourcePoint"/>
                        <mxPoint x="580" y="280" as="targetPoint"/>
                    </mxGeometry>
                </mxCell>
                <mxCell id="25" value="診療記録" style="edgeLabel;html=1;align=center;verticalAlign=middle;resizable=0;points=[];fontSize=14;" parent="24" vertex="1" connectable="0">
                    <mxGeometry x="-0.06" y="1" relative="1" as="geometry">
                        <mxPoint x="40" y="-9" as="offset"/>
                    </mxGeometry>
                </mxCell>
                <mxCell id="28" value="" style="endArrow=classic;html=1;fontSize=18;" parent="1" edge="1">
                    <mxGeometry width="50" height="50" relative="1" as="geometry">
                        <mxPoint x="100" y="380" as="sourcePoint"/>
                        <mxPoint x="580" y="380" as="targetPoint"/>
                    </mxGeometry>
                </mxCell>
                <mxCell id="29" value="会計関連作業" style="edgeLabel;html=1;align=center;verticalAlign=middle;resizable=0;points=[];fontSize=14;" parent="28" vertex="1" connectable="0">
                    <mxGeometry x="-0.06" y="1" relative="1" as="geometry">
                        <mxPoint x="17" y="-9" as="offset"/>
                    </mxGeometry>
                </mxCell>
                <mxCell id="65" value="" style="endArrow=classic;html=1;fontSize=18;startArrow=none;startFill=0;endFill=1;" parent="1" edge="1">
                    <mxGeometry width="50" height="50" relative="1" as="geometry">
                        <mxPoint x="580" y="120" as="sourcePoint"/>
                        <mxPoint x="340" y="120" as="targetPoint"/>
                    </mxGeometry>
                </mxCell>
                <mxCell id="66" value="新規患者登録" style="edgeLabel;html=1;align=center;verticalAlign=middle;resizable=0;points=[];fontSize=14;" parent="65" vertex="1" connectable="0">
                    <mxGeometry x="-0.06" y="1" relative="1" as="geometry">
                        <mxPoint x="3" y="-9" as="offset"/>
                    </mxGeometry>
                </mxCell>
                <mxCell id="73" value="" style="endArrow=classic;html=1;fontSize=18;" parent="1" edge="1">
                    <mxGeometry width="50" height="50" relative="1" as="geometry">
                        <mxPoint x="100" y="220" as="sourcePoint"/>
                        <mxPoint x="580" y="220" as="targetPoint"/>
                    </mxGeometry>
                </mxCell>
                <mxCell id="74" value="その他患者情報・履歴・コメントなど登録・修正・削除" style="edgeLabel;html=1;align=center;verticalAlign=middle;resizable=0;points=[];fontSize=14;" parent="73" vertex="1" connectable="0">
                    <mxGeometry x="-0.06" y="1" relative="1" as="geometry">
                        <mxPoint x="7" y="-9" as="offset"/>
                    </mxGeometry>
                </mxCell>
                <mxCell id="75" value="" style="endArrow=classic;html=1;fontSize=18;" parent="1" edge="1">
                    <mxGeometry width="50" height="50" relative="1" as="geometry">
                        <mxPoint x="580" y="240" as="sourcePoint"/>
                        <mxPoint x="340" y="240" as="targetPoint"/>
                    </mxGeometry>
                </mxCell>
                <mxCell id="76" value="ORCAに反映" style="edgeLabel;html=1;align=center;verticalAlign=middle;resizable=0;points=[];fontSize=14;" parent="75" vertex="1" connectable="0">
                    <mxGeometry x="-0.06" y="1" relative="1" as="geometry">
                        <mxPoint x="3" y="-12" as="offset"/>
                    </mxGeometry>
                </mxCell>
                <mxCell id="77" value="" style="endArrow=classic;html=1;fontSize=18;" parent="1" edge="1">
                    <mxGeometry width="50" height="50" relative="1" as="geometry">
                        <mxPoint x="100" y="340" as="sourcePoint"/>
                        <mxPoint x="580" y="340" as="targetPoint"/>
                    </mxGeometry>
                </mxCell>
                <mxCell id="78" value="会計処理" style="edgeLabel;html=1;align=center;verticalAlign=middle;resizable=0;points=[];fontSize=14;" parent="77" vertex="1" connectable="0">
                    <mxGeometry x="-0.06" y="1" relative="1" as="geometry">
                        <mxPoint x="7" y="-9" as="offset"/>
                    </mxGeometry>
                </mxCell>
                <mxCell id="79" value="" style="endArrow=classic;html=1;fontSize=18;startArrow=classic;startFill=1;" parent="1" edge="1">
                    <mxGeometry width="50" height="50" relative="1" as="geometry">
                        <mxPoint x="580" y="360" as="sourcePoint"/>
                        <mxPoint x="340" y="360" as="targetPoint"/>
                    </mxGeometry>
                </mxCell>
                <mxCell id="80" value="ORCAから会計情報取得" style="edgeLabel;html=1;align=center;verticalAlign=middle;resizable=0;points=[];fontSize=14;" parent="79" vertex="1" connectable="0">
                    <mxGeometry x="-0.06" y="1" relative="1" as="geometry">
                        <mxPoint x="3" y="-12" as="offset"/>
                    </mxGeometry>
                </mxCell>
                <mxCell id="83" value="" style="endArrow=classic;html=1;fontSize=18;" parent="1" edge="1">
                    <mxGeometry width="50" height="50" relative="1" as="geometry">
                        <mxPoint x="100" y="440" as="sourcePoint"/>
                        <mxPoint x="580" y="440" as="targetPoint"/>
                    </mxGeometry>
                </mxCell>
                <mxCell id="84" value="公費、病名、保険関連情報の追加・修正・削除" style="edgeLabel;html=1;align=center;verticalAlign=middle;resizable=0;points=[];fontSize=14;" parent="83" vertex="1" connectable="0">
                    <mxGeometry x="-0.06" y="1" relative="1" as="geometry">
                        <mxPoint x="7" y="-9" as="offset"/>
                    </mxGeometry>
                </mxCell>
                <mxCell id="90" value="" style="endArrow=classic;html=1;fontSize=18;startArrow=none;startFill=0;endFill=1;" edge="1" parent="1">
                    <mxGeometry width="50" height="50" relative="1" as="geometry">
                        <mxPoint x="580" y="180" as="sourcePoint"/>
                        <mxPoint x="340" y="180" as="targetPoint"/>
                    </mxGeometry>
                </mxCell>
                <mxCell id="91" value="受付登録・修正・削除" style="edgeLabel;html=1;align=center;verticalAlign=middle;resizable=0;points=[];fontSize=14;" vertex="1" connectable="0" parent="90">
                    <mxGeometry x="-0.06" y="1" relative="1" as="geometry">
                        <mxPoint x="3" y="-9" as="offset"/>
                    </mxGeometry>
                </mxCell>
                <mxCell id="92" value="" style="endArrow=classic;html=1;fontSize=18;" edge="1" parent="1">
                    <mxGeometry width="50" height="50" relative="1" as="geometry">
                        <mxPoint x="100" y="320" as="sourcePoint"/>
                        <mxPoint x="340" y="320" as="targetPoint"/>
                    </mxGeometry>
                </mxCell>
                <mxCell id="93" value="会計関連設定" style="edgeLabel;html=1;align=center;verticalAlign=middle;resizable=0;points=[];fontSize=14;" vertex="1" connectable="0" parent="92">
                    <mxGeometry x="-0.06" y="1" relative="1" as="geometry">
                        <mxPoint x="7" y="-9" as="offset"/>
                    </mxGeometry>
                </mxCell>
                <mxCell id="94" value="" style="endArrow=classic;html=1;fontSize=18;startArrow=classic;startFill=1;" edge="1" parent="1">
                    <mxGeometry width="50" height="50" relative="1" as="geometry">
                        <mxPoint x="580" y="400" as="sourcePoint"/>
                        <mxPoint x="340" y="400" as="targetPoint"/>
                    </mxGeometry>
                </mxCell>
                <mxCell id="95" value="ORCAから会計情報取得" style="edgeLabel;html=1;align=center;verticalAlign=middle;resizable=0;points=[];fontSize=14;" vertex="1" connectable="0" parent="94">
                    <mxGeometry x="-0.06" y="1" relative="1" as="geometry">
                        <mxPoint x="3" y="-12" as="offset"/>
                    </mxGeometry>
                </mxCell>
                <mxCell id="96" value="" style="endArrow=classic;html=1;fontSize=18;" edge="1" parent="1">
                    <mxGeometry width="50" height="50" relative="1" as="geometry">
                        <mxPoint x="580" y="460" as="sourcePoint"/>
                        <mxPoint x="340" y="460" as="targetPoint"/>
                    </mxGeometry>
                </mxCell>
                <mxCell id="97" value="ORCAに反映" style="edgeLabel;html=1;align=center;verticalAlign=middle;resizable=0;points=[];fontSize=14;" vertex="1" connectable="0" parent="96">
                    <mxGeometry x="-0.06" y="1" relative="1" as="geometry">
                        <mxPoint x="3" y="-12" as="offset"/>
                    </mxGeometry>
                </mxCell>
                <mxCell id="98" value="" style="endArrow=classic;html=1;fontSize=18;" edge="1" parent="1">
                    <mxGeometry width="50" height="50" relative="1" as="geometry">
                        <mxPoint x="100" y="500" as="sourcePoint"/>
                        <mxPoint x="580" y="500" as="targetPoint"/>
                    </mxGeometry>
                </mxCell>
                <mxCell id="99" value="レセプト関連作業" style="edgeLabel;html=1;align=center;verticalAlign=middle;resizable=0;points=[];fontSize=14;" vertex="1" connectable="0" parent="98">
                    <mxGeometry x="-0.06" y="1" relative="1" as="geometry">
                        <mxPoint x="7" y="-9" as="offset"/>
                    </mxGeometry>
                </mxCell>
                <mxCell id="100" value="" style="endArrow=classic;html=1;fontSize=18;startArrow=classic;startFill=1;" edge="1" parent="1">
                    <mxGeometry width="50" height="50" relative="1" as="geometry">
                        <mxPoint x="580" y="520" as="sourcePoint"/>
                        <mxPoint x="340" y="520" as="targetPoint"/>
                    </mxGeometry>
                </mxCell>
                <mxCell id="101" value="ORCAからレセプト情報取得" style="edgeLabel;html=1;align=center;verticalAlign=middle;resizable=0;points=[];fontSize=14;" vertex="1" connectable="0" parent="100">
                    <mxGeometry x="-0.06" y="1" relative="1" as="geometry">
                        <mxPoint x="3" y="-12" as="offset"/>
                    </mxGeometry>
                </mxCell>
                <mxCell id="102" value="" style="endArrow=classic;html=1;fontSize=18;" edge="1" parent="1">
                    <mxGeometry width="50" height="50" relative="1" as="geometry">
                        <mxPoint x="100" y="560" as="sourcePoint"/>
                        <mxPoint x="340" y="560" as="targetPoint"/>
                    </mxGeometry>
                </mxCell>
                <mxCell id="103" value="総括表、公費請求書の出力" style="edgeLabel;html=1;align=center;verticalAlign=middle;resizable=0;points=[];fontSize=14;" vertex="1" connectable="0" parent="102">
                    <mxGeometry x="-0.06" y="1" relative="1" as="geometry">
                        <mxPoint x="7" y="-9" as="offset"/>
                    </mxGeometry>
                </mxCell>
                <mxCell id="104" value="" style="endArrow=classic;html=1;fontSize=18;" edge="1" parent="1">
                    <mxGeometry width="50" height="50" relative="1" as="geometry">
                        <mxPoint x="100" y="584" as="sourcePoint"/>
                        <mxPoint x="340" y="584" as="targetPoint"/>
                    </mxGeometry>
                </mxCell>
                <mxCell id="105" value="レせ止め、月遅れ請求など" style="edgeLabel;html=1;align=center;verticalAlign=middle;resizable=0;points=[];fontSize=14;" vertex="1" connectable="0" parent="104">
                    <mxGeometry x="-0.06" y="1" relative="1" as="geometry">
                        <mxPoint x="7" y="-9" as="offset"/>
                    </mxGeometry>
                </mxCell>
            </root>
        </mxGraphModel>
    </diagram>
</mxfile>